<svg width="265" height="214" viewBox="0 0 265 214" fill="none" xmlns="http://www.w3.org/2000/svg">
<g clip-path="url(#clip0_160_246)">
<path d="M176.464 214L176.408 213.995L88.536 205.835L8.63099 213.255C6.5447 213.449 4.46689 212.806 2.85462 211.468C1.24236 210.13 0.227727 208.207 0.0339291 206.122C0.0113727 205.879 8.55137e-05 205.635 6.59144e-05 205.391V15.4195C-0.00799929 13.4492 0.724335 11.5476 2.05208 10.0913C3.37982 8.63504 5.20617 7.73023 7.16952 7.55603L88.5361 0L88.5923 0.00533641L176.464 8.1653L256.369 0.74513C258.455 0.551387 260.533 1.19407 262.145 2.53178C263.758 3.8695 264.772 5.79268 264.966 7.87824C264.989 8.12104 265 8.3645 265 8.60862V198.58C265.008 200.551 264.276 202.452 262.948 203.909C261.62 205.365 259.794 206.27 257.831 206.444L176.464 214Z" fill="#3F3D56"/>
<path d="M122.492 70.2801C105.482 57.8963 87.585 46.1534 69.3021 35.3794L68.3845 34.8388V71.3796H124.002L122.492 70.2801ZM69.5999 70.1646V36.968C86.9925 47.2529 104.023 58.4126 120.265 70.1647L69.5999 70.1646ZM208.576 145.376C201.22 137.73 193.673 130.259 185.936 122.962C183.803 120.948 181.657 118.951 179.498 116.969C166.32 104.868 152.708 93.3588 138.663 82.4421L138.499 82.3146H68.3845V146.405H209.567L208.576 145.376ZM69.5999 145.19V83.5296H138.082C151.625 94.0605 164.801 105.181 177.611 116.89C179.835 118.922 182.044 120.971 184.238 123.035C191.907 130.24 199.397 137.625 206.708 145.19H69.5999ZM208.576 145.376C201.22 137.73 193.673 130.259 185.936 122.962C183.803 120.948 181.657 118.951 179.498 116.969C166.32 104.868 152.708 93.3588 138.663 82.4421L138.499 82.3146H68.3845V146.405H209.567L208.576 145.376ZM69.5999 145.19V83.5296H138.082C151.625 94.0605 164.801 105.181 177.611 116.89C179.835 118.922 182.044 120.971 184.238 123.035C191.907 130.24 199.397 137.625 206.708 145.19H69.5999ZM122.492 70.2801C105.482 57.8963 87.585 46.1534 69.3021 35.3794L68.3845 34.8388V71.3796H124.002L122.492 70.2801ZM69.5999 70.1646V36.968C86.9925 47.2529 104.023 58.4126 120.265 70.1647L69.5999 70.1646ZM122.492 70.2801C105.482 57.8963 87.585 46.1534 69.3021 35.3794L68.3845 34.8388V71.3796H124.002L122.492 70.2801ZM69.5999 70.1646V36.968C86.9925 47.2529 104.023 58.4126 120.265 70.1647L69.5999 70.1646ZM208.576 145.376C201.22 137.73 193.673 130.259 185.936 122.962C183.803 120.948 181.657 118.951 179.498 116.969C166.32 104.868 152.708 93.3588 138.663 82.4421L138.499 82.3146H68.3845V146.405H209.567L208.576 145.376ZM69.5999 145.19V83.5296H138.082C151.625 94.0605 164.801 105.181 177.611 116.89C179.835 118.922 182.044 120.971 184.238 123.035C191.907 130.24 199.397 137.625 206.708 145.19H69.5999ZM8.22754 157.34V158.555H56.2303V176.173H8.22754V177.388H57.4458V157.34H8.22754ZM68.3845 188.323V200.634L69.5999 200.521V189.538H256.774V188.323L68.3845 188.323ZM256.774 158.555V157.34H68.3845V177.388H256.774V176.173H69.5999V158.555L256.774 158.555ZM143.269 70.1646C119.952 52.1841 95.3275 35.9646 69.5999 21.6409V9.33911L68.3845 9.4515V21.8485L69.3204 22.8772C94.9431 37.1619 119.468 53.3315 142.692 71.2521L142.856 71.3796H256.774V70.1646L143.269 70.1646ZM56.2303 70.1646H8.22754V71.3796H57.4458V10.466L56.2303 10.5784L56.2303 70.1646ZM256.774 82.3146H156.627L157.936 83.3898C170.267 93.532 182.373 104.289 194.256 115.66C195.945 117.276 197.629 118.905 199.306 120.547C207.656 128.703 215.843 137.125 223.866 145.813L224.868 146.405H256.774V145.19H224.945C217.008 136.588 208.9 128.235 200.619 120.131C198.963 118.509 197.301 116.898 195.632 115.299C184.007 104.148 172.133 93.5583 160.011 83.5296H256.774V82.3146ZM8.22754 188.323V189.538H56.2303V201.76L57.4458 201.648V188.323H8.22754ZM8.22754 82.3146V83.5296H56.2303V145.19H8.22754V146.405H57.4458V82.3146H8.22754ZM122.492 70.2801C105.482 57.8963 87.585 46.1534 69.3021 35.3794L68.3845 34.8388V71.3796H124.002L122.492 70.2801ZM69.5999 70.1646V36.968C86.9925 47.2529 104.023 58.4126 120.265 70.1647L69.5999 70.1646ZM208.576 145.376C201.22 137.73 193.673 130.259 185.936 122.962C183.803 120.948 181.657 118.951 179.498 116.969C166.32 104.868 152.708 93.3588 138.663 82.4421L138.499 82.3146H68.3845V146.405H209.567L208.576 145.376ZM69.5999 145.19V83.5296H138.082C151.625 94.0605 164.801 105.181 177.611 116.89C179.835 118.922 182.044 120.971 184.238 123.035C191.907 130.24 199.397 137.625 206.708 145.19H69.5999ZM122.492 70.2801C105.482 57.8963 87.585 46.1534 69.3021 35.3794L68.3845 34.8388V71.3796H124.002L122.492 70.2801ZM69.5999 70.1646V36.968C86.9925 47.2529 104.023 58.4126 120.265 70.1647L69.5999 70.1646ZM208.576 145.376C201.22 137.73 193.673 130.259 185.936 122.962C183.803 120.948 181.657 118.951 179.498 116.969C166.32 104.868 152.708 93.3588 138.663 82.4421L138.499 82.3146H68.3845V146.405H209.567L208.576 145.376ZM69.5999 145.19V83.5296H138.082C151.625 94.0605 164.801 105.181 177.611 116.89C179.835 118.922 182.044 120.971 184.238 123.035C191.907 130.24 199.397 137.625 206.708 145.19H69.5999Z" fill="white"/>
<path d="M135.726 79.9541C135.726 95.3396 107.859 129.614 107.859 129.614C107.859 129.614 79.9912 95.3396 79.9912 79.9541C79.9912 72.5657 82.9273 65.48 88.1534 60.2556C93.3796 55.0312 100.468 52.0962 107.859 52.0962C115.25 52.0962 122.338 55.0312 127.564 60.2556C132.79 65.48 135.726 72.5657 135.726 79.9541Z" fill="#DA5B0D"/>
<path d="M120.599 78.7429C120.599 81.2616 119.852 83.7238 118.452 85.8181C117.052 87.9123 115.063 89.5446 112.735 90.5085C110.407 91.4724 107.845 91.7246 105.374 91.2332C102.903 90.7418 100.633 89.5289 98.8514 87.7479C97.0698 85.9669 95.8565 83.6977 95.3649 81.2273C94.8734 78.757 95.1256 76.1964 96.0899 73.8694C97.0541 71.5423 98.6869 69.5534 100.782 68.1541C102.877 66.7547 105.34 66.0078 107.86 66.0078C109.533 66.007 111.19 66.3359 112.736 66.9756C114.282 67.6154 115.686 68.5534 116.869 69.7361C118.053 70.9188 118.991 72.323 119.631 73.8685C120.271 75.4139 120.6 77.0703 120.599 78.7429Z" fill="white"/>
<path d="M107.859 149.72C112.008 149.72 115.371 146.358 115.371 142.21C115.371 138.063 112.008 134.701 107.859 134.701C103.71 134.701 100.347 138.063 100.347 142.21C100.347 146.358 103.71 149.72 107.859 149.72Z" fill="#DA5B0D"/>
<path d="M179.835 47.9388C185.969 47.9388 190.942 42.9679 190.942 36.836C190.942 30.7041 185.969 25.7332 179.835 25.7332C173.701 25.7332 168.729 30.7041 168.729 36.836C168.729 42.9679 173.701 47.9388 179.835 47.9388Z" fill="#F9AA01"/>
<path d="M214.664 71.0507H160.178C160.11 71.0516 160.042 71.0462 159.975 71.0346L185.744 26.4138C185.901 26.1359 186.129 25.9047 186.405 25.7439C186.681 25.583 186.995 25.4983 187.314 25.4983C187.634 25.4983 187.947 25.583 188.223 25.7439C188.499 25.9047 188.727 26.1359 188.885 26.4138L206.179 56.3578L207.008 57.7906L214.664 71.0507Z" fill="white"/>
<path opacity="0.2" d="M214.664 71.0508H196.062L205.194 57.7906L205.851 56.8355L206.18 56.3579L207.008 57.7906L214.664 71.0508Z" fill="black"/>
<path d="M245.002 71.0508H197.876L207.008 57.7907L207.665 56.8355L219.565 39.5551C220.345 38.4225 222.222 38.352 223.139 39.3414C223.201 39.4089 223.258 39.4803 223.311 39.5551L245.002 71.0508Z" fill="white"/>
<path d="M248.499 133.951C251.604 133.951 254.12 131.435 254.12 128.332C254.12 125.228 251.604 122.712 248.499 122.712C245.395 122.712 242.878 125.228 242.878 128.332C242.878 131.435 245.395 133.951 248.499 133.951Z" fill="white"/>
<path d="M249.041 145.257H247.89L248.414 127.485L249.041 145.257Z" fill="#CBCBCB"/>
<path d="M248.515 130.854L249.752 129.144L248.499 131.277L248.363 131.04L248.515 130.854Z" fill="#CBCBCB"/>
<path d="M248.381 132.58L247.145 130.871L248.398 133.003L248.533 132.766L248.381 132.58Z" fill="#CBCBCB"/>
<path d="M232.515 128.559C237.1 128.559 240.817 124.843 240.817 120.259C240.817 115.676 237.1 111.96 232.515 111.96C227.93 111.96 224.213 115.676 224.213 120.259C224.213 124.843 227.93 128.559 232.515 128.559Z" fill="white"/>
<path d="M233.316 145.257H231.615L232.391 119.01L233.316 145.257Z" fill="#CBCBCB"/>
<path d="M232.54 123.984L234.366 121.459L232.515 124.609L232.315 124.259L232.54 123.984Z" fill="#CBCBCB"/>
<path d="M232.34 126.534L230.515 124.009L232.365 127.159L232.565 126.809L232.34 126.534Z" fill="#CBCBCB"/>
<path d="M39.7658 133.951C42.8704 133.951 45.3871 131.435 45.3871 128.332C45.3871 125.228 42.8704 122.712 39.7658 122.712C36.6613 122.712 34.1445 125.228 34.1445 128.332C34.1445 131.435 36.6613 133.951 39.7658 133.951Z" fill="white"/>
<path d="M40.3076 145.257H39.1562L39.681 127.485L40.3076 145.257Z" fill="#CBCBCB"/>
<path d="M39.783 130.854L41.0192 129.144L39.7661 131.277L39.6309 131.04L39.783 130.854Z" fill="#CBCBCB"/>
<path d="M39.6474 132.58L38.4111 130.871L39.6643 133.003L39.7995 132.766L39.6474 132.58Z" fill="#CBCBCB"/>
<path d="M23.7826 128.559C28.3678 128.559 32.0848 124.843 32.0848 120.259C32.0848 115.676 28.3678 111.96 23.7826 111.96C19.1975 111.96 15.4805 115.676 15.4805 120.259C15.4805 124.843 19.1975 128.559 23.7826 128.559Z" fill="white"/>
<path d="M24.5822 145.257H22.8818L23.6572 119.01L24.5822 145.257Z" fill="#CBCBCB"/>
<path d="M23.8069 123.984L25.6322 121.459L23.7819 124.609L23.582 124.259L23.8069 123.984Z" fill="#CBCBCB"/>
<path d="M23.6069 126.534L21.7812 124.009L23.6319 127.159L23.8318 126.809L23.6069 126.534Z" fill="#CBCBCB"/>
</g>
<defs>
<clipPath id="clip0_160_246">
<rect width="265" height="214" fill="white"/>
</clipPath>
</defs>
</svg>
