<svg width="88" height="66" viewBox="0 0 88 66" fill="none" xmlns="http://www.w3.org/2000/svg">
<path d="M71.1061 16.0807L61.6446 21.6709L43.9555 11.3186V20.4977L34.2197 14.8384V5.7283L43.887 0L71.1061 16.0807Z" fill="#F2A413"/>
<path d="M15.845 49.0702V16.4257L25.0324 10.8355L62.2616 32.4374V22.7062L71.5861 17.2539L71.8603 49.2772L25.238 22.016V43.4799L15.845 49.0702Z" fill="#DA5B0D"/>
<path d="M34.2197 47.3448V28.7796L43.887 34.3698L44.0241 52.866L34.2197 47.3448Z" fill="#F2A413"/>
<path d="M6.47666 65.841L2.67228 61.4151V65.841H0V56.7243H2.54064L6.34502 61.2164V56.7243H9.0173V65.841H6.47666Z" fill="#DA5B0D"/>
<path d="M14.3751 58.6854C15.6476 58.6854 16.6174 58.9858 17.2844 59.5865C17.9601 60.1872 18.298 61.106 18.298 62.3427V62.7933H13.0851C13.0851 63.2968 13.1948 63.6767 13.4142 63.9328C13.6423 64.189 13.9978 64.3171 14.4804 64.3171C14.9192 64.3171 15.2396 64.2244 15.4414 64.0388C15.652 63.8533 15.7573 63.606 15.7573 63.2968H18.298C18.298 64.1449 17.9777 64.8074 17.337 65.2844C16.6964 65.7615 15.7617 66 14.5331 66C13.243 66 12.2426 65.6996 11.5317 65.0989C10.8209 64.4894 10.4654 63.5706 10.4654 62.3427C10.4654 61.1413 10.8121 60.2314 11.5054 59.613C12.1987 58.9946 13.1553 58.6854 14.3751 58.6854ZM14.4804 60.3683C13.6555 60.3683 13.1948 60.7614 13.0982 61.5477H15.652C15.652 61.1855 15.5467 60.8984 15.3361 60.6863C15.1342 60.4743 14.849 60.3683 14.4804 60.3683Z" fill="#DA5B0D"/>
<path d="M24.6034 65.841L24.4323 64.7809C24.1602 65.1608 23.8004 65.4611 23.3528 65.682C22.914 65.894 22.4489 66 21.9575 66C21.1501 66 20.5445 65.7747 20.1408 65.3242C19.7371 64.8737 19.5353 64.2244 19.5353 63.3763V58.8445H22.1549V63.0583C22.1549 63.3586 22.2295 63.6016 22.3787 63.7871C22.5367 63.9638 22.7561 64.0521 23.0369 64.0521C23.3616 64.0521 23.6249 63.9461 23.8267 63.7341C24.0286 63.5221 24.1295 63.2615 24.1295 62.9523V58.8445H26.7491V65.841H24.6034Z" fill="#DA5B0D"/>
<path d="M32.5675 58.6722C32.7693 58.6722 32.9492 58.6987 33.1072 58.7517C33.2652 58.7959 33.3442 58.8224 33.3442 58.8312V61.0441H32.5017C31.9576 61.0441 31.5626 61.1855 31.3169 61.4682C31.08 61.7508 30.9615 62.1705 30.9615 62.727V65.841H28.3419V58.8445H30.4876L30.6587 59.9045C30.8167 59.4982 31.0668 59.1934 31.4091 58.9902C31.7513 58.7782 32.1375 58.6722 32.5675 58.6722Z" fill="#DA5B0D"/>
<path d="M37.8454 58.6854C38.9073 58.6854 39.7717 58.8665 40.4387 59.2287C41.1057 59.5821 41.4392 60.1607 41.4392 60.9646V63.6943C41.4392 63.8445 41.4743 63.9682 41.5445 64.0654C41.6147 64.1625 41.72 64.2111 41.8604 64.2111H42.3343V65.735C42.308 65.7526 42.2378 65.7836 42.1237 65.8277C42.0184 65.8631 41.8648 65.8984 41.6629 65.9337C41.4611 65.9779 41.2285 66 40.9652 66C40.4562 66 40.035 65.9249 39.7015 65.7747C39.3768 65.6157 39.153 65.3993 39.0302 65.1254C38.6967 65.3905 38.3237 65.6025 37.9112 65.7615C37.4987 65.9205 37.0161 66 36.4632 66C34.8309 66 34.0147 65.3463 34.0147 64.0388C34.0147 63.3586 34.1946 62.8418 34.5544 62.4885C34.923 62.1263 35.4496 61.8789 36.1341 61.7464C36.8186 61.6139 37.7138 61.5477 38.8195 61.5477V61.2031C38.8195 60.9293 38.723 60.7217 38.5299 60.5803C38.3456 60.439 38.1043 60.3683 37.8059 60.3683C37.5339 60.3683 37.2969 60.4169 37.0951 60.5141C36.902 60.6113 36.8054 60.7659 36.8054 60.9779V61.0309H34.2253C34.2165 60.9867 34.2122 60.9249 34.2122 60.8454C34.2122 60.1828 34.5237 59.6572 35.1468 59.2685C35.7787 58.8798 36.6782 58.6854 37.8454 58.6854ZM38.8195 62.7933C38.0736 62.7933 37.5207 62.8772 37.1609 63.045C36.8098 63.204 36.6343 63.4205 36.6343 63.6943C36.6343 64.136 36.9327 64.3569 37.5295 64.3569C37.8717 64.3569 38.1701 64.2641 38.4246 64.0786C38.6879 63.8931 38.8195 63.6634 38.8195 63.3895V62.7933Z" fill="#DA5B0D"/>
<path d="M48.4554 56.7243C49.0171 56.7243 49.5173 56.8568 49.9561 57.1218C50.3949 57.378 50.7372 57.7358 50.9829 58.1952C51.2286 58.6457 51.3515 59.1536 51.3515 59.719V59.8913C51.3515 60.4567 51.2286 60.969 50.9829 61.4284C50.7372 61.8878 50.3949 62.25 49.9561 62.515C49.5173 62.7712 49.0171 62.8993 48.4554 62.8993H46.2834V65.841H43.3741V56.7243H48.4554ZM46.2834 60.7659H47.4813C47.7885 60.7659 48.0166 60.6863 48.1658 60.5273C48.3238 60.3683 48.4028 60.1519 48.4028 59.878V59.772C48.4028 59.4893 48.3238 59.2729 48.1658 59.1227C48.0166 58.9637 47.7885 58.8842 47.4813 58.8842H46.2834V60.7659Z" fill="#DA5B0D"/>
<path d="M57.7318 65.841L57.5607 64.7809C57.2886 65.1608 56.9288 65.4611 56.4812 65.682C56.0424 65.894 55.5773 66 55.0858 66C54.2785 66 53.6729 65.7747 53.2692 65.3242C52.8655 64.8737 52.6637 64.2244 52.6637 63.3763V58.8445H55.2833V63.0583C55.2833 63.3586 55.3579 63.6016 55.5071 63.7871C55.6651 63.9638 55.8844 64.0521 56.1653 64.0521C56.49 64.0521 56.7533 63.9461 56.9551 63.7341C57.157 63.5221 57.2579 63.2615 57.2579 62.9523V58.8445H59.8775V65.841H57.7318Z" fill="#DA5B0D"/>
<path d="M64.6559 64.0521H67.7231V65.841H60.9437V64.9797L63.8661 60.6333H61.1017V58.8445H67.6046V59.666L64.6559 64.0521Z" fill="#DA5B0D"/>
<path d="M71.9706 64.0521H75.0378V65.841H68.2584V64.9797L71.1808 60.6333H68.4164V58.8445H74.9194V59.666L71.9706 64.0521Z" fill="#DA5B0D"/>
<path d="M76.1918 65.841V56.234H78.8115V65.841H76.1918Z" fill="#DA5B0D"/>
<path d="M84.0771 58.6854C85.3497 58.6854 86.3194 58.9858 86.9864 59.5865C87.6621 60.1872 88 61.106 88 62.3427V62.7933H82.7871C82.7871 63.2968 82.8968 63.6767 83.1162 63.9328C83.3444 64.189 83.6998 64.3171 84.1825 64.3171C84.6213 64.3171 84.9416 64.2244 85.1434 64.0388C85.3541 63.8533 85.4594 63.606 85.4594 63.2968H88C88 64.1449 87.6797 64.8074 87.039 65.2844C86.3984 65.7615 85.4638 66 84.2351 66C82.9451 66 81.9446 65.6996 81.2337 65.0989C80.5229 64.4894 80.1675 63.5706 80.1675 62.3427C80.1675 61.1413 80.5141 60.2314 81.2074 59.613C81.9007 58.9946 82.8573 58.6854 84.0771 58.6854ZM84.1825 60.3683C83.3575 60.3683 82.8968 60.7614 82.8002 61.5477H85.3541C85.3541 61.1855 85.2487 60.8984 85.0381 60.6863C84.8363 60.4743 84.5511 60.3683 84.1825 60.3683Z" fill="#DA5B0D"/>
</svg>
